<svg width="358" height="266" viewBox="0 0 358 266" fill="none" xmlns="http://www.w3.org/2000/svg">
<path d="M326 175H46V25H326V175Z" stroke="#003595" stroke-width="20"/>
<path d="M137 185V28" stroke="#013597" stroke-width="20"/>
<path d="M236 185V28" stroke="#013597" stroke-width="20"/>
<path d="M18.3125 206.812H22.6484V240H18.3125V206.812ZM31.2969 206.812H35.0938L56.4688 233.016V206.812H60.3359V240H56.7031L35.1641 213.609V240H31.2969V206.812ZM70.2031 232.477C69.4688 231.227 68.8984 229.875 68.4922 228.422C68.0859 226.953 67.8828 225.383 67.8828 223.711C67.8828 222.039 68.0938 220.445 68.5156 218.93C68.9531 217.398 69.5703 215.992 70.3672 214.711C71.1641 213.414 72.1172 212.25 73.2266 211.219C74.3359 210.188 75.5703 209.312 76.9297 208.594C79.7734 207.094 82.875 206.344 86.2344 206.344C91.1719 206.344 95.2578 207.719 98.4922 210.469L96.0547 213.797C93.3203 211.422 89.9062 210.234 85.8125 210.234C82.1094 210.234 78.9688 211.453 76.3906 213.891C73.7812 216.344 72.4766 219.398 72.4766 223.055C72.4766 227.039 73.7656 230.289 76.3438 232.805C78.9062 235.32 82.1797 236.578 86.1641 236.578C89.1797 236.578 91.875 235.695 94.25 233.93C94.9219 233.43 95.4922 232.906 95.9609 232.359V228.773H84.4531V224.836H100.297V240H95.9609V236.789C94.1797 238.398 91.7969 239.516 88.8125 240.141C87.7188 240.359 86.4453 240.469 84.9922 240.469C83.5391 240.469 82.0625 240.289 80.5625 239.93C79.0625 239.555 77.6719 239.023 76.3906 238.336C75.1094 237.633 73.9375 236.789 72.875 235.805C71.8281 234.82 70.9375 233.711 70.2031 232.477ZM108.922 206.812H113.258V236.062H131.352V240H108.922V206.812ZM149.023 206.812H151.484L165.852 240H161.117L157.977 232.734H141.359L137.961 240H133.508L149.023 206.812ZM156.289 228.797L153.289 221.836C152.914 220.961 152.547 220.055 152.188 219.117L151.25 216.469C150.656 214.75 150.305 213.578 150.195 212.953H149.914C149.789 213.578 149.508 214.469 149.07 215.625C149.07 215.625 148.672 216.641 147.875 218.672C147.516 219.547 147.125 220.438 146.703 221.344L143.211 228.797H156.289ZM171.664 232.523C174.57 234.398 177.523 235.633 180.523 236.227C181.539 236.43 182.57 236.531 183.617 236.531C184.664 236.531 185.742 236.438 186.852 236.25C187.977 236.047 188.969 235.719 189.828 235.266C191.766 234.234 192.734 232.648 192.734 230.508C192.734 228.305 191.109 226.766 187.859 225.891C186.906 225.641 185.891 225.414 184.812 225.211L181.461 224.625C177.195 223.891 174.219 222.812 172.531 221.391C170.969 220.094 170.188 218.344 170.188 216.141C170.188 213.141 171.625 210.711 174.5 208.852C177.062 207.18 180.086 206.344 183.57 206.344C186.914 206.344 189.922 206.891 192.594 207.984C193.547 208.359 194.539 208.828 195.57 209.391L193.977 213.211C191.711 211.852 189.039 210.969 185.961 210.562C184.992 210.422 184.055 210.352 183.148 210.352C181.07 210.352 179.234 210.75 177.641 211.547C175.781 212.484 174.852 213.781 174.852 215.438C174.852 217.188 176.031 218.469 178.391 219.281C179.453 219.656 180.656 219.961 182 220.195L186.172 220.922C189.688 221.578 192.125 222.32 193.484 223.148C194.844 223.977 195.844 224.906 196.484 225.938C197.141 226.953 197.469 228.312 197.469 230.016C197.469 231.703 197.07 233.219 196.273 234.562C195.477 235.906 194.414 237.016 193.086 237.891C190.492 239.625 187.188 240.492 183.172 240.492C179.422 240.492 175.898 239.68 172.602 238.055C171.523 237.523 170.523 236.914 169.602 236.227L171.664 232.523ZM216.758 206.812H219.219L233.586 240H228.852L225.711 232.734H209.094L205.695 240H201.242L216.758 206.812ZM224.023 228.797L221.023 221.836C220.648 220.961 220.281 220.055 219.922 219.117L218.984 216.469C218.391 214.75 218.039 213.578 217.93 212.953H217.648C217.523 213.578 217.242 214.469 216.805 215.625C216.805 215.625 216.406 216.641 215.609 218.672C215.25 219.547 214.859 220.438 214.438 221.344L210.945 228.797H224.023ZM267.523 217.031C267.523 221.953 265.258 225.352 260.727 227.227L267.031 240H261.992L256.297 228.445C254.75 228.68 253.133 228.797 251.445 228.797H242.82V240H238.484V206.812H252.102C257.008 206.812 260.672 207.484 263.094 208.828C266.047 210.453 267.523 213.188 267.523 217.031ZM252.031 224.859C255.531 224.859 258.125 224.375 259.812 223.406C261.891 222.203 262.93 220.172 262.93 217.312C262.93 213.594 260.523 211.484 255.711 210.984C254.32 210.828 252.891 210.75 251.422 210.75H242.82V224.859H252.031ZM274.812 206.812H278.609L299.984 233.016V206.812H303.852V240H300.219L278.68 213.609V240H274.812V206.812ZM324.289 206.812H326.75L341.117 240H336.383L333.242 232.734H316.625L313.227 240H308.773L324.289 206.812ZM331.555 228.797L328.555 221.836C328.18 220.961 327.812 220.055 327.453 219.117L326.516 216.469C325.922 214.75 325.57 213.578 325.461 212.953H325.18C325.055 213.578 324.773 214.469 324.336 215.625C324.336 215.625 323.938 216.641 323.141 218.672C322.781 219.547 322.391 220.438 321.969 221.344L318.477 228.797H331.555Z" fill="#003595"/>
</svg>
